PathFileType	4	(X/Y/Z)	Patient4_TMGait_0pt6_02_right_37.trc.trc
DataRate	CameraRate	NumFrames	NumMarkers	Units	OrigDataRate	OrigDataStartFrame	OrigNumFrames
82.352941176470	82.352941176470	4	33	mm	82.352941176470	36	       141
Frame#	Time	Sacral			L.Shoulder			Chest			R.Shoulder			Neck			R.ASIS			L.ASIS			R.Thigh.Superior			R.Thigh.Lateral			R.Thigh.Inferior			R.Patella			L.Thigh.Superior			L.Thigh.Lateral			L.Thigh.Inferior			L.Patella			L.Shank.Superior			L.Shank.Lateral			L.Shank.Inferior			R.Shank.Superior			R.Shank.Lateral			R.Shank.Inferior			R.Heel			R.Midfoot.Superior			R.Midfoot.Lateral			R.Toe			L.Heel			L.Midfoot.Lateral			L.Midfoot.Superior			L.Toe			L.Elbow			L.Wrist			R.Elbow			R.Wrist			
		X1	Y1	Z1	X2	Y2	Z2	X3	Y3	Z3	X4	Y4	Z4	X5	Y5	Z5	X6	Y6	Z6	X7	Y7	Z7	X8	Y8	Z8	X9	Y9	Z9	X10	Y10	Z10	X11	Y11	Z11	X12	Y12	Z12	X13	Y13	Z13	X14	Y14	Z14	X15	Y15	Z15	X16	Y16	Z16	X17	Y17	Z17	X18	Y18	Z18	X19	Y19	Z19	X20	Y20	Z20	X21	Y21	Z21	X22	Y22	Z22	X23	Y23	Z23	X24	Y24	Z24	X25	Y25	Z25	X26	Y26	Z26	X27	Y27	Z27	X28	Y28	Z28	X29	Y29	Z29	X30	Y30	Z30	X31	Y31	Z31	X32	Y32	Z32	X33	Y33	Z33	

36	44.975000000000	827.587252479181	1015.035441058172	462.066028442347	1040.733255235184	1414.287348822993	253.066050593782	1139.296857488364	1345.308117118353	416.717388852517	1064.081055018482	1441.006671663246	583.450009827779	1050.835902459218	1484.016476846082	397.615986030071	1052.606186107203	930.308455230836	569.894798920146	1031.933984650550	958.767920450633	296.395418108972	1115.138666029786	751.588407083014	536.644891900363	1052.781663182729	633.396426916565	603.174985008744	1136.981605757210	590.930089624729	522.548139588876	1153.225264632180	500.722351890895	532.595312636118	1025.496336745347	732.944410942536	308.726266791255	900.413196890749	645.214001486383	254.312636581540	967.593309985324	543.684676561331	302.115889766038	948.975277655450	468.750656284047	304.128571825739	893.161791698949	413.070932976099	301.288157467260	759.842580291811	344.037811820823	262.970369331591	775.946744700050	214.729462612644	320.945907105611	1126.665199393265	410.742281717277	541.843590670556	1059.447197625910	305.748102252360	605.293599476167	1106.364341815264	210.933371200449	546.178611816742	979.794230391965	43.829291310237	518.702938401738	1150.264167806563	98.032668890291	555.717459526038	1062.076454061637	37.846645727500	594.656438418915	1270.621681995672	42.644732397063	586.864744795072	603.658750297047	103.098206519414	370.498774880069	671.803325550990	64.625181472168	295.816552031418	770.047640603842	105.403402960564	312.025736754047	875.733736253592	36.524671503023	301.499414892135	1016.242187947731	1065.310833808489	129.658123697263	1213.602926031600	894.159356090991	125.817380807056	955.948212706093	1141.730516943807	756.965986652437	1044.795662692108	896.598214475141	732.434597180789	
37	44.987142857143	828.655437057000	1016.294229210193	465.384021220071	1041.448258309682	1415.632726316883	256.196967250516	1140.437544752584	1346.568939524070	419.494820330473	1065.689397641326	1442.006373327978	586.489035880799	1051.787376942849	1485.240699839912	400.882544942432	1053.875516236150	931.272948495641	572.349076341120	1032.145965870500	959.726923943450	299.365524159755	1114.354287886486	750.594924685206	539.560169280691	1050.014643180987	633.350999416585	605.205867217996	1133.672068381183	590.146302281266	524.337430334389	1148.911572820882	499.906032276583	533.713366897651	1029.779351846943	734.405433107816	310.745218766498	907.250486049323	644.389158824909	255.870825546551	977.008764679613	543.550724547970	303.233519308270	959.043413509748	467.071294101464	303.963044490748	900.525384002477	412.261252817683	301.647533660290	764.975408125139	347.709355997855	263.399900771823	776.947436176323	217.793186112191	320.544959931743	1121.827896151596	410.271882089071	542.921051427988	1054.083412131061	305.501566532083	606.153839232604	1100.253233597993	210.621731937670	546.565853053057	972.707290292253	43.787983595674	518.799252440567	1143.184872794721	97.991113086247	555.881031086643	1054.947324388309	37.817044853177	594.739526305797	1263.508758081693	42.415795488771	587.116427649551	601.164952651379	113.435172029519	369.702916269042	667.282439203860	71.200544589219	295.413268718966	767.159319622005	107.361159606642	311.138000347372	868.602606899225	35.733758224369	301.530639129561	1012.290112033792	1065.790164152843	135.359307744430	1199.352108082967	882.795262589688	128.987106241426	963.905010112879	1141.437081502595	761.792319433537	1065.499577313460	902.000015683269	734.206755352263	
38	44.999285714286	829.538921661221	1017.414278087191	468.607090978830	1041.940737561197	1416.816375493344	259.264232954663	1141.469780331010	1347.666797742617	422.150118779968	1067.298509992880	1442.843225710637	589.451140677246	1052.601587862017	1486.306202051140	404.096110988452	1054.953700544773	932.045437167067	574.721071575623	1032.173147936318	960.431296818211	302.310010947928	1113.268887806171	749.424303766540	542.612100080332	1046.908463020883	633.237840544004	607.325369112624	1130.025127980696	589.299578098902	526.223135222207	1144.204993698236	499.080479708791	534.970297709447	1034.701239912288	735.928318925239	313.014833175316	915.412851227235	643.287663784741	257.418355162153	987.830449540392	543.425039319480	304.704493298554	970.543839669145	465.370628415188	304.235642869419	909.351702306557	411.362245676610	302.246753789340	771.744521582797	351.602998340629	263.702979167515	779.098855613159	221.335863749278	320.202514759184	1116.684985239883	409.779488506253	544.100347999200	1048.444567488624	305.172596174335	607.028980330780	1094.018224183207	210.297663987996	547.017559361038	965.626121174282	43.737620153185	518.867399579844	1136.129904843523	97.907731638708	556.037454902428	1047.821500795297	37.755911077379	594.802442881550	1256.404137077326	42.157887772915	587.318986119705	599.889505453772	125.349422689112	368.692220318935	663.597754093326	79.175809595744	294.845290004744	764.978409129059	109.997368543867	310.311165052940	861.481669686249	34.675974745938	301.536253452433	1008.296025599183	1066.231333747271	140.880923862510	1184.355565346483	872.062658155812	132.474833392389	972.144553417802	1141.138649911786	766.598312421581	1086.337146941781	908.233204853786	735.642288804688	
39	45.011428571429	830.198878793880	1018.371327741565	471.676298648764	1042.231227592576	1417.809362689177	262.223100267834	1142.361801819917	1348.541723795301	424.660583220573	1068.875658970512	1443.484465496850	592.298045099813	1053.289800582900	1487.185536572884	407.206954837287	1055.799674426920	932.656810889888	577.044440141953	1032.064240812995	960.868584619366	305.171193013360	1111.974931638356	748.206481995464	545.712147344581	1043.661625691740	633.118092682685	609.504388446636	1126.221867833292	588.451866790925	528.181181872416	1139.276169830569	498.276464419548	536.376291164096	1040.170885085401	737.554829728790	315.611174278292	924.838565964058	642.011338204570	258.977068141437	999.905537388126	543.420951795327	306.606211177222	983.345852504583	463.783764172450	305.037578654482	919.567023433626	410.470239881890	303.133006400636	780.125412970357	355.753860374584	263.898437835001	782.440152102599	225.413759144856	319.932992731071	1111.377427035146	409.279477770806	545.374165375496	1042.647767617719	304.806845567424	607.944525876333	1087.707348040783	209.970894133608	547.534253274972	958.518474081916	43.698456633255	518.931689911620	1129.075935310083	97.799144383701	556.204654040561	1040.671685514871	37.679123977434	594.866400248752	1249.281386527852	41.876863365109	587.486884229401	599.994169841847	138.805332636165	367.438967962732	660.938190800168	88.588081942214	294.077961926625	763.615101013208	113.432284718578	309.544199490231	854.472621354789	33.379902136580	301.503620187975	1004.197648317422	1066.606314171072	146.176965367923	1168.747947200791	862.114761944716	136.303286598803	980.725087824883	1140.787704029737	771.336027182517	1107.210435897290	915.243807893236	736.688169077704	
